<?xml version="1.0" encoding="UTF-8" standalone="no"?> <!-- Created with Vectornator for iOS (http://vectornator.io/) --><!DOCTYPE svg PUBLIC "-//W3C//DTD SVG 1.1//EN" "http://www.w3.org/Graphics/SVG/1.1/DTD/svg11.dtd">
<svg style="fill-rule:evenodd;clip-rule:evenodd;stroke-linecap:round;stroke-linejoin:round;" xmlns:vectornator="http://vectornator.io" xmlns:xlink="http://www.w3.org/1999/xlink" xmlns="http://www.w3.org/2000/svg" xml:space="preserve" version="1.1" viewBox="0 0 512 512">
<metadata>
<vectornator:setting key="DimensionsVisible" value="1"/>
<vectornator:setting key="New" value="1"/>
<vectornator:setting key="SnapToPoints" value="0"/>
<vectornator:setting key="GuidesVisible" value="1"/>
<vectornator:setting key="RulersVisible" value="1"/>
<vectornator:setting key="CMYKEnabledKey" value="0"/>
<vectornator:setting key="SnapToEdges" value="0"/>
<vectornator:setting key="DisplayWhiteBackground" value="0"/>
<vectornator:setting key="SnapToGuides" value="1"/>
<vectornator:setting key="GridSpacing" value="36"/>
<vectornator:setting key="SnapToGrid" value="0"/>
<vectornator:setting key="Units" value="Pixels"/>
<vectornator:setting key="DynamicGuides" value="0"/>
</metadata>
<defs/>
<g id="レイヤー 2" vectornator:layerName="レイヤー 2">
<path stroke="#333333" stroke-width="1" d="M425.322+200.111C421.204+163.869+393.282+117.206+364.271+96.4137C337.336+77.1107+253.097+53.3709+194.135+81.5998C135.173+109.829+105.701+165.994+98.9669+206.396C93.6221+238.465+99.6172+332.926+100.266+342.411C100.863+351.137+103.235+376.854+105.685+391.919C109.056+412.651+126.82+440.816+132.382+447.145C144.382+460.801+183.305+493.264+195.795+500.47C210.81+509.133+250.574+511.991+260.17+512C269.765+512.009+300.043+505.755+313.014+496.147C328.973+484.325+367.25+452.912+374.506+440.9C383.784+425.539+397.406+392.349+408.725+356.393C415.549+334.719+429.811+239.615+425.322+200.111Z" fill="#e1a98a" stroke-linecap="round" opacity="1" stroke-linejoin="round"/>
<path stroke="#232323" stroke-width="1.5" d="M197.544+234.419C186.89+234.634+176.258+235.608+166.808+236.958C158.189+238.189+145.854+237.784+138.344+243.417C130.779+249.091+131.93+267.336+133.133+275.756C133.441+277.915+133.909+280.063+134.113+282.215C134.3+284.197+135.104+285.741+135.761+287.382C139.509+296.752+171.726+297.093+180.394+297.093C212.059+297.093+243.272+302.899+248.279+262.838C248.891+257.949+251.59+253.672+250.863+248.584C249.381+238.209+236.187+237.615+228.235+236.29C218.845+234.725+208.197+234.204+197.544+234.419Z" fill="none" stroke-linecap="round" opacity="1" stroke-linejoin="round"/>
<path stroke="#232323" stroke-width="1.5" d="M350.019+234.196C340.538+234.303+331.117+234.778+322.045+236.29C313.206+237.763+301.741+237.387+294.205+243.417C291.689+245.429+288.984+247.749+288.414+251.168C287.258+258.103+290.606+279.622+296.165+285.778C299.186+289.125+325.838+293.083+331.012+293.822C340.665+295.201+353.467+295.858+363.351+294.446C368.09+293.769+392.97+291.385+399.641+287.382C409.257+281.612+408.428+251.687+404.853+242.749C401.394+234.102+385.754+234.374+378.304+234.374C369.019+234.374+359.499+234.089+350.019+234.196Z" fill="none" stroke-linecap="round" opacity="1" stroke-linejoin="round"/>
<path stroke="#232323" stroke-width="2" d="M250.235+258.291C256.727+251.799+282.698+248.181+287.106+256.997" fill="none" stroke-linecap="round" opacity="1" stroke-linejoin="round"/>
<path stroke="#333333" stroke-width="1" d="M93.928+287.603C93.928+287.603+92.5954+277.936+85.6719+273.099C78.7485+268.262+70.284+269.235+66.2343+269.594C53.0125+270.765+47.4895+278.691+47.4895+292.858C47.4895+314.643+53.1799+337.711+55.8577+345.745C58.1857+352.729+63.4393+364.716+68.2427+370.682C84.1423+390.431+103.389+388.423+104.226+382.063L93.928+287.603Z" fill="#e1a98a" stroke-linecap="round" opacity="1" stroke-linejoin="round"/>
<path stroke="#333333" stroke-width="1" d="M423.498+298.823L433.497+270.16C446.989+256.668+458.382+279.68+458.382+290.504C458.382+314.141+451.761+335.655+448.603+342.969C445.235+350.769+437.435+365.482+427.508+372.75C419.758+378.424+406.501+386.289+402.074+378.477C414.182+336.423+423.498+298.823+423.498+298.823Z" fill="#e1a98a" stroke-linecap="round" opacity="1" stroke-linejoin="round"/>
<path stroke="#232323" stroke-width="5" d="M407.171+259.074C410.962+259.074+433.817+259.415+436.524+261.64C439.072+263.733+439.909+267.203+441.52+269.851" fill="none" stroke-linecap="round" opacity="1" stroke-linejoin="round"/>
<path stroke="#232323" stroke-width="5" d="M132.258+261.649C115.957+261.649+80.7415+256.639+72.3033+273.515" fill="none" stroke-linecap="round" opacity="1" stroke-linejoin="round"/>
<path d="M140.404+215.394C152.879+209.445+156.292+209.417+172.866+207.273C189.44+205.129+191.016+204.86+200.455+205.909C208.641+206.818+224.919+210.752+233.35+216.217C241.781+221.682+242.769+225.55+240.424+228.676C239.111+230.427+228.745+229.558+226.684+229.301C213.951+227.709+201.445+225.108+188.588+223.68C179.374+222.656+171.102+222.275+156.738+223.68C142.374+225.085+139.327+233.398+131.132+229.301C131.132+229.301+127.928+221.343+140.404+215.394Z" opacity="1" fill="#370f01"/>
<path d="M378.834+221.45C366.592+221.863+348.419+222.855+328.481+226.178C320.254+227.549+308.909+232.713+300.378+229.301C293.676+226.62+309.294+216.707+312.398+215.673C326.536+210.96+345.453+204.119+359.99+204.119C359.99+204.119+380.14+203.291+389.267+207.107C398.394+210.923+398.641+213.747+398.088+218.334C397.59+222.463+384.854+221.247+378.834+221.45Z" opacity="1" fill="#2f1209"/>
<path stroke="#232323" stroke-width="1" d="M435.899+286.132C448.265+273.767+452.137+293.259+452.137+302.37C452.137+317.891+445.195+349.282+434.026+360.45" fill="none" stroke-linecap="round" opacity="1" stroke-linejoin="round"/>
<path stroke="#232323" stroke-width="1" d="M430.903+312.362C429.36+311.59+437.529+308.159+438.397+314.236C439.077+318.99+434.188+338.361+427.156+334.845" fill="none" stroke-linecap="round" opacity="1" stroke-linejoin="round"/>
<path stroke="#232323" stroke-width="1" d="M77.4233+288.63C75.331+286.538+72.752+286.757+69.929+286.757C57.8048+286.757+60.6942+294.568+59.3121+304.243C57.7437+315.222+66.4909+347.02+73.6761+354.205" fill="none" stroke-linecap="round" opacity="1" stroke-linejoin="round"/>
<path stroke="#232323" stroke-width="1" d="M82.4194+321.73C78.7073+314.306+75.5559+322.713+76.1742+327.351C77.043+333.867+78.9302+340.191+84.293+344.213" fill="none" stroke-linecap="round" opacity="1" stroke-linejoin="round"/>
<path stroke="#232323" stroke-width="1" d="M229.079+427.501C242.338+435.037+258.531+434.338+267.54+434.161C275.845+433.998+287.61+430.531+293.268+427.815" fill="none" stroke-linecap="round" opacity="1" stroke-linejoin="round"/>
<path stroke="#232323" stroke-width="1" d="M246.769+395.823C253.391+392.512+258.962+397.523+266.147+396.725C267.721+396.55+269.476+395.626+270.953+395.072C274.306+393.815+279.614+393.803+282.97+394.922" fill="none" stroke-linecap="round" opacity="1" stroke-linejoin="round"/>
<path stroke="#232323" stroke-width="1" d="M191.557+405.826C191.075+405.584+194.803+407.562+195.852+408.086C198.626+409.473+201.572+410.808+204.668+411.251C214.375+412.637+223.845+412.452+233.601+411.477C236.702+411.167+239.932+410.403+243.095+410.799C249.006+411.537+255.324+413.057+261.405+412.381C268.168+411.629+275.053+410.029+281.975+410.799C293.657+412.097+307.935+415.557+319.498+411.703C322.729+410.626+325.714+408.953+328.992+407.86" fill="none" stroke-linecap="round" opacity="1" stroke-linejoin="round"/>
<path stroke="#232323" stroke-width="1" d="M227.38+321.221C226.585+322.812+225.077+323.854+224.059+325.28C218.498+333.065+213.73+350.255+226.273+354.436" fill="none" stroke-linecap="round" opacity="1" stroke-linejoin="round"/>
<path stroke="#232323" stroke-width="1" d="M299.716+311.994C305.041+319.982+318.352+338.937+313.371+348.9C311.892+351.857+307.678+353.238+304.883+354.436" fill="none" stroke-linecap="round" opacity="1" stroke-linejoin="round"/>
<path stroke="#232323" stroke-width="1" d="M238.821+352.591C249.491+349.034+256.798+361.6+266.87+360.341C277.929+358.958+280.905+348.162+293.442+348.162" fill="none" stroke-linecap="round" opacity="1" stroke-linejoin="round"/>
<path d="M211.753+1.45976C183.222+3.65442+157.028+15.4199+134.168+32.0458C123.671+39.68+117.078+50.0588+108.555+59.5296C92.5468+77.3161+84.5327+96.4601+75.4582+118.239C67.0322+138.461+58.5762+160.509+56.126+182.561C53.0061+210.64+57.3705+227.05+60.7207+245.237C61.7757+250.964+70.6562+268.412+76.3994+269.488C82.1426+270.565+84.7575+280.879+84.7575+280.879L89.7465+296.647C89.1103+304.045+90.1329+314.868+91.7955+322.349C93.4581+329.831+98.1076+342.448+98.6553+342.082C99.0229+341.837+97.8535+310.153+97.8535+309.788C97.8535+301.327+98.4771+293.148+98.4771+284.798C99.028+280.391+102.439+276.912+104.09+272.95C106.186+267.919+107.287+262.145+109.702+257.315C112.498+251.723+116.881+246.788+119.725+241.101C122.282+235.986+118.723+227.047+123.466+225.466C128.834+223.676+133.013+216.471+137.186+212.993C140.901+209.898+146.464+206.141+150.95+204.218C155.406+202.308+154.689+207.334+157.81+209.207C161.252+211.272+168.854+212.459+172.777+211.746C180.1+210.414+187.244+205.158+192.777+200.476C195.053+198.551+198.541+194.155+199.014+194.864C199.821+196.075+196.516+202.596+198.39+202.971C201.051+203.503+203.086+200.183+205.294+198.605C213.179+192.973+219.289+182.209+227.745+177.981C234.339+174.684+234.903+179.358+240.262+181.144C246.377+183.183+266.284+160.502+269.616+156.778C270.904+155.339+281.336+143.272+280.218+145.509C280.218+145.509+287.436+162.388+289.305+167.023C294.73+171.823+302.593+180.109+310.998+186.222C311.789+186.798+319.032+190.697+320.352+188.717C321.12+187.564+317.07+180.609+317.234+180.609C319.153+180.609+320.021+183.259+321.599+184.351C326.92+188.035+333.799+191.803+340.352+192.458C341.454+192.568+345.539+193.607+346.589+193.082C348.193+192.28+345.919+186.563+348.46+186.846C356.804+187.773+362.306+200.244+370.331+203.683C377.567+206.785+375.18+200.081+377.814+197.447C379.406+195.855+380.397+201.129+381.556+203.06C383.488+206.28+386.877+210.575+389.663+213.082C393.262+216.321+404.251+217.648+404.674+218.071C407.428+220.825+408.488+229.231+410.911+233.038C412.178+235.029+417.889+239.124+418.394+241.145C418.624+242.064+419.185+263.26+419.132+264.634C418.742+274.906+417.986+283.829+417.165+294.369C416.509+302.786+413.198+337.854+412.191+341.378C413.387+338.39+424.13+310.794+428.041+297.237C431.286+285.987+431.375+274.871+436.123+270.123C441.051+265.194+454.881+244.347+458.134+205.78C459.941+184.355+457.983+134.454+443.082+104.653C439.598+97.6845+414.477+54.1764+402.502+42.2019C380.309+20.0086+362.892+11.6475+332.466+8.88154C323.858+8.09905+297.54+9.75469+293.174+18.0496C284.661+6.0438+264.738+1.40033+249.735+0.15004C241.713-0.518425+214.468+1.25093+211.753+1.45976Z" opacity="1" fill="#070405"/>
<path d="M309.688+259.033C326.497+259.033+343.154+251.868+360.226+254.713C365.986+255.673+374.258+256.167+379.231+259.897C380.902+261.149+385.542+268.104+381.391+268.104" opacity="1" fill="none"/>
<path d="M314.386+259.848C316.758+258.266+326.406+253.227+330.229+252.272C344.521+248.699+359.239+251.798+372.992+255.727C376.872+256.836+389.473+264.664+386.814+269.981C385.401+272.808+379.486+269.989+377.743+269.118C369.149+264.82+358.873+261.888+349.667+260.047C341.712+258.456+331.867+261.54+324.182+262.638C320.312+263.191+313.912+267.654+309.927+265.662C307.483+264.44+312.014+261.429+314.386+259.848Z" opacity="1" fill="#232323"/>
<path d="M220.942+261.243C216.864+258.694+208.881+254.523+205.058+253.567C190.766+249.994+176.048+253.093+162.295+257.023C158.415+258.131+145.814+265.96+148.472+271.277C149.886+274.104+155.801+271.285+157.543+270.413C166.138+266.116+176.414+263.184+185.62+261.342C193.574+259.752+203.42+262.836+211.105+263.934C214.975+264.487+221.375+268.95+225.359+266.958C227.803+265.736+223.76+263.004+220.942+261.243Z" opacity="1" fill="#232323"/>
</g>
</svg>
