<?xml version="1.0" encoding="UTF-8" standalone="no"?> <!-- Created with Vectornator for iOS (http://vectornator.io/) --><!DOCTYPE svg PUBLIC "-//W3C//DTD SVG 1.1//EN" "http://www.w3.org/Graphics/SVG/1.1/DTD/svg11.dtd">
<svg style="fill-rule:evenodd;clip-rule:evenodd;stroke-linecap:round;stroke-linejoin:round;" xmlns:vectornator="http://vectornator.io" xmlns:xlink="http://www.w3.org/1999/xlink" xmlns="http://www.w3.org/2000/svg" xml:space="preserve" version="1.1" viewBox="0 0 32 32">
<metadata>
<vectornator:setting key="DimensionsVisible" value="1"/>
<vectornator:setting key="New" value="1"/>
<vectornator:setting key="SnapToPoints" value="0"/>
<vectornator:setting key="GuidesVisible" value="1"/>
<vectornator:setting key="RulersVisible" value="1"/>
<vectornator:setting key="CMYKEnabledKey" value="0"/>
<vectornator:setting key="SnapToEdges" value="0"/>
<vectornator:setting key="DisplayWhiteBackground" value="0"/>
<vectornator:setting key="SnapToGuides" value="1"/>
<vectornator:setting key="GridSpacing" value="36"/>
<vectornator:setting key="SnapToGrid" value="0"/>
<vectornator:setting key="Units" value="Pixels"/>
<vectornator:setting key="DynamicGuides" value="1"/>
</metadata>
<defs/>
<g id="レイヤー 2" vectornator:layerName="レイヤー 2">
<path stroke="#333333" stroke-width="0.8" d="M26.7644+12.5069C26.507+10.2418+24.7619+7.32535+22.9487+6.02586C21.2653+4.81942+16.0004+3.33568+12.3152+5.09999C8.6301+6.86429+6.78807+10.3746+6.36722+12.8997C6.03317+14.904+6.40787+20.8079+6.44842+21.4007C6.48573+21.9461+6.63401+23.5534+6.78711+24.4949C6.9978+25.7907+8.10803+27.551+8.45568+27.9466C9.20569+28.8001+11.6384+30.829+12.419+31.2794C13.3574+31.8208+15.8426+31.9994+16.4424+32C17.0421+32.0006+18.9345+31.6097+19.7452+31.0092C20.7426+30.2703+23.1349+28.307+23.5884+27.5563C24.1683+26.5962+25.0197+24.5218+25.7271+22.2745C26.1536+20.9199+27.045+14.9759+26.7644+12.5069Z" fill="#e1a98a" stroke-linecap="round" opacity="1" stroke-linejoin="round"/>
<path stroke="#232323" stroke-width="0.4" d="M12.5283+14.6512C11.8624+14.6646+11.1979+14.7255+10.6073+14.8099C10.0686+14.8868+9.29769+14.8615+8.82831+15.2136C8.35547+15.5682+8.4274+16.7085+8.50258+17.2348C8.52185+17.3697+8.55113+17.504+8.56383+17.6384C8.57552+17.7623+8.62582+17.8588+8.66683+17.9614C8.90109+18.547+10.9147+18.5683+11.4564+18.5683C13.4355+18.5683+15.3863+18.9312+15.6993+16.4274C15.7374+16.1218+15.9062+15.8545+15.8607+15.5365C15.7681+14.8881+14.9435+14.851+14.4465+14.7681C13.8596+14.6703+13.1941+14.6377+12.5283+14.6512Z" fill="none" stroke-linecap="round" opacity="1" stroke-linejoin="round"/>
<path stroke="#232323" stroke-width="0.4" d="M22.058+14.6373C21.4654+14.644+20.8766+14.6736+20.3096+14.7681C19.7572+14.8602+19.0406+14.8367+18.5696+15.2136C18.4124+15.3393+18.2433+15.4843+18.2077+15.698C18.1354+16.1314+18.3447+17.4764+18.6921+17.8612C18.8809+18.0703+20.5467+18.3177+20.87+18.3639C21.4734+18.4501+22.2735+18.4911+22.8912+18.4028C23.1874+18.3605+24.7424+18.2116+25.1593+17.9614C25.7604+17.6008+25.7085+15.7304+25.4851+15.1718C25.2689+14.6314+24.2914+14.6484+23.8258+14.6484C23.2455+14.6484+22.6505+14.6306+22.058+14.6373Z" fill="none" stroke-linecap="round" opacity="1" stroke-linejoin="round"/>
<path stroke="#232323" stroke-width="0.4" d="M15.8215+16.1432C16.2272+15.7374+17.8504+15.5113+18.1259+16.0623" fill="none" stroke-linecap="round" opacity="1" stroke-linejoin="round"/>
<path stroke="#333333" stroke-width="0.8" d="M6.05229+17.9752C6.05229+17.9752+5.969+17.371+5.53629+17.0687C5.10357+16.7664+4.57454+16.8272+4.32144+16.8496C3.49507+16.9228+3.14988+17.4182+3.14988+18.3036C3.14988+19.6652+3.50553+21.107+3.6729+21.609C3.81839+22.0455+4.14675+22.7947+4.44696+23.1676C5.44069+24.4019+6.64362+24.2764+6.69592+23.8789L6.05229+17.9752Z" fill="#e1a98a" stroke-linecap="round" opacity="1" stroke-linejoin="round"/>
<path stroke="#333333" stroke-width="0.8" d="M26.6504+18.6764L27.2753+16.885C28.1186+16.0417+28.8307+17.48+28.8307+18.1565C28.8307+19.6338+28.4169+20.9784+28.2195+21.4356C28.009+21.9231+27.5215+22.8426+26.9011+23.2969C26.4167+23.6515+25.5881+24.1431+25.3114+23.6548C26.0682+21.0264+26.6504+18.6764+26.6504+18.6764Z" fill="#e1a98a" stroke-linecap="round" opacity="1" stroke-linejoin="round"/>
<path stroke="#232323" stroke-width="0.4" d="M25.63+16.1921C25.8669+16.1921+27.2953+16.2135+27.4645+16.3525C27.6238+16.4833+27.6761+16.7002+27.7768+16.8657" fill="none" stroke-linecap="round" opacity="1" stroke-linejoin="round"/>
<path stroke="#232323" stroke-width="0.4" d="M8.44789+16.3531C7.4291+16.3531+5.22814+16.0399+4.70075+17.0947" fill="none" stroke-linecap="round" opacity="1" stroke-linejoin="round"/>
<path d="M8.95704+13.4621C9.73676+13.0903+9.95004+13.0886+10.9859+12.9546C12.0218+12.8206+12.1203+12.8038+12.7102+12.8693C13.2219+12.9262+14.2392+13.172+14.7662+13.5136C15.2931+13.8551+15.3548+14.0968+15.2083+14.2923C15.1262+14.4017+14.4784+14.3474+14.3496+14.3313C13.5537+14.2318+12.7721+14.0693+11.9686+13.98C11.3927+13.916+10.8756+13.8922+9.9779+13.98C9.08014+14.0678+8.88971+14.5874+8.37756+14.3313C8.37756+14.3313+8.17731+13.8339+8.95704+13.4621Z" opacity="1" fill="#370f01"/>
<path d="M23.8589+13.8406C23.0938+13.8664+21.958+13.9284+20.7119+14.1361C20.1977+14.2218+19.4886+14.5446+18.9554+14.3313C18.5366+14.1637+19.5127+13.5442+19.7066+13.4796C20.5903+13.185+21.7726+12.7574+22.6811+12.7574C22.6811+12.7574+23.9405+12.7057+24.511+12.9442C25.0814+13.1827+25.0968+13.3592+25.0623+13.6459C25.0312+13.904+24.2351+13.8279+23.8589+13.8406Z" opacity="1" fill="#2f1209"/>
<path stroke="#232323" stroke-width="0.5" d="M27.4255+17.8833C28.1983+17.1104+28.4404+18.3287+28.4404+18.8981C28.4404+19.8682+28.0065+21.8301+27.3084+22.5281" fill="none" stroke-linecap="round" opacity="1" stroke-linejoin="round"/>
<path stroke="#232323" stroke-width="0.5" d="M27.1132+19.5226C27.0168+19.4744+27.5274+19.2599+27.5816+19.6397C27.6241+19.9369+27.3185+21.1476+26.879+20.9278" fill="none" stroke-linecap="round" opacity="1" stroke-linejoin="round"/>
<path stroke="#232323" stroke-width="0.5" d="M5.02075+18.0394C4.88998+17.9086+4.72879+17.9223+4.55235+17.9223C3.79459+17.9223+3.97518+18.4105+3.8888+19.0152C3.79078+19.7014+4.33747+21.6887+4.78655+22.1378" fill="none" stroke-linecap="round" opacity="1" stroke-linejoin="round"/>
<path stroke="#232323" stroke-width="0.5" d="M5.33301+20.1081C5.101+19.6441+4.90403+20.1696+4.94268+20.4594C4.99698+20.8667+5.11493+21.2619+5.45011+21.5133" fill="none" stroke-linecap="round" opacity="1" stroke-linejoin="round"/>
<path stroke="#232323" stroke-width="0.5" d="M14.4992+26.7188C15.3279+27.1898+16.34+27.1461+16.9031+27.1351C17.4221+27.1249+18.1574+26.9082+18.5111+26.7385" fill="none" stroke-linecap="round" opacity="1" stroke-linejoin="round"/>
<path stroke="#232323" stroke-width="0.5" d="M15.6049+24.739C16.0187+24.532+16.3669+24.8452+16.8159+24.7953C16.9143+24.7844+17.0241+24.7266+17.1164+24.692C17.3259+24.6134+17.6577+24.6127+17.8674+24.6826" fill="none" stroke-linecap="round" opacity="1" stroke-linejoin="round"/>
<path stroke="#232323" stroke-width="0.5" d="M12.1541+25.3641C12.124+25.349+12.357+25.4726+12.4226+25.5054C12.5959+25.5921+12.78+25.6755+12.9735+25.7032C13.5802+25.7898+14.1721+25.7783+14.7819+25.7173C14.9757+25.6979+15.1775+25.6502+15.3752+25.6749C15.7446+25.7211+16.1395+25.816+16.5196+25.7738C16.9423+25.7268+17.3726+25.6268+17.8052+25.6749C18.5354+25.756+19.4277+25.9723+20.1504+25.7314C20.3524+25.6641+20.5389+25.5595+20.7438+25.4913" fill="none" stroke-linecap="round" opacity="1" stroke-linejoin="round"/>
<path stroke="#232323" stroke-width="0.5" d="M14.3931+20.0763C14.3433+20.1758+14.2491+20.2409+14.1855+20.33C13.8379+20.8166+13.5399+21.8909+14.3239+22.1522" fill="none" stroke-linecap="round" opacity="1" stroke-linejoin="round"/>
<path stroke="#232323" stroke-width="0.5" d="M18.914+19.4996C19.2468+19.9989+20.0788+21.1836+19.7675+21.8063C19.6751+21.9911+19.4117+22.0774+19.237+22.1522" fill="none" stroke-linecap="round" opacity="1" stroke-linejoin="round"/>
<path stroke="#232323" stroke-width="0.5" d="M15.1081+22.0369C15.775+21.8146+16.2317+22.6+16.8611+22.5213C17.5524+22.4349+17.7384+21.7601+18.5219+21.7601" fill="none" stroke-linecap="round" opacity="1" stroke-linejoin="round"/>
<path d="M13.4163+0.0912352C11.6332+0.228401+9.99605+0.963744+8.56727+2.00286C7.91121+2.48+7.49919+3.12868+6.96646+3.7206C5.96597+4.83226+5.46509+6.02876+4.89793+7.38993C4.3713+8.65384+3.8428+10.0318+3.68967+11.4101C3.49467+13.165+3.76745+14.1907+3.97684+15.3273C4.04277+15.6853+4.5978+16.7757+4.95675+16.843C5.3157+16.9103+5.47914+17.5549+5.47914+17.5549L5.79095+18.5405C5.75119+19.0028+5.8151+19.6792+5.91901+20.1468C6.02293+20.6144+6.31351+21.403+6.34775+21.3802C6.37072+21.3648+6.29764+19.3846+6.29764+19.3617C6.29763+18.8329+6.33661+18.3217+6.33661+17.7999C6.37104+17.5245+6.58422+17.307+6.6874+17.0594C6.8184+16.745+6.88722+16.3841+7.03818+16.0822C7.21294+15.7327+7.48686+15.4242+7.66459+15.0688C7.82441+14.7491+7.60199+14.1904+7.89845+14.0916C8.23391+13.9798+8.49509+13.5294+8.75592+13.3121C8.9881+13.1186+9.33577+12.8838+9.61618+12.7636C9.89468+12.6443+9.84988+12.9584+10.0449+13.0754C10.2601+13.2045+10.7352+13.2787+10.9804+13.2341C11.4381+13.1509+11.8846+12.8224+12.2304+12.5298C12.3726+12.4094+12.5906+12.1347+12.6201+12.179C12.6706+12.2547+12.464+12.6622+12.5812+12.6857C12.7475+12.7189+12.8746+12.5114+13.0127+12.4128C13.5055+12.0608+13.8874+11.3881+14.4158+11.1238C14.828+10.9178+14.8632+11.2099+15.1981+11.3215C15.5804+11.4489+16.8246+10.0314+17.0328+9.79864C17.1133+9.70868+17.7653+8.95448+17.6954+9.09429C17.6954+9.09428+18.1466+10.1492+18.2633+10.439C18.6024+10.7389+19.0938+11.2568+19.6192+11.6389C19.6686+11.6749+20.1213+11.9186+20.2038+11.7948C20.2518+11.7228+19.9986+11.2881+20.0089+11.2881C20.1289+11.2881+20.1831+11.4537+20.2818+11.5219C20.6143+11.7522+21.0442+11.9877+21.4538+12.0286C21.5226+12.0355+21.778+12.1004+21.8436+12.0676C21.9438+12.0175+21.8017+11.6602+21.9605+11.6779C22.482+11.7358+22.8259+12.5153+23.3275+12.7302C23.7797+12.924+23.6305+12.5051+23.7952+12.3404C23.8947+12.2409+23.9566+12.5706+24.029+12.6912C24.1498+12.8925+24.3616+13.1609+24.5357+13.3176C24.7606+13.5201+25.4475+13.603+25.4739+13.6294C25.646+13.8015+25.7123+14.3269+25.8637+14.5649C25.9429+14.6893+26.2998+14.9452+26.3314+15.0716C26.3458+15.129+26.3808+16.4537+26.3776+16.5396C26.3531+17.1816+26.3059+17.7393+26.2546+18.398C26.2136+18.9241+26.0067+21.1159+25.9437+21.3361C26.0184+21.1493+26.6899+19.4246+26.9344+18.5773C27.1372+17.8742+27.1427+17.1795+27.4395+16.8827C27.7475+16.5747+28.6119+15.2717+28.8151+12.8612C28.9281+11.5222+28.8057+8.40337+27.8744+6.54081C27.6567+6.10528+26.0866+3.38603+25.3382+2.63762C23.9511+1.25054+22.8625+0.727971+20.9609+0.555096C20.4229+0.506191+18.778+0.609668+18.5052+1.1281C17.9731+0.377737+16.7279+0.0875205+15.7902+0.00937747C15.2889-0.0324016+13.586+0.0781831+13.4163+0.0912352Z" opacity="1" fill="#070405"/>
<path d="M19.5373+16.1896C20.5879+16.1896+21.6289+15.7418+22.6959+15.9196C23.0559+15.9796+23.5729+16.0104+23.8838+16.2435C23.9881+16.3218+24.2781+16.7565+24.0187+16.7565" opacity="1" fill="none"/>
<path d="M19.8309+16.2405C19.9792+16.1416+20.5822+15.8267+20.8211+15.767C21.7143+15.5437+22.6342+15.7374+23.4938+15.9829C23.7363+16.0522+24.5238+16.5415+24.3577+16.8738C24.2694+17.0505+23.8996+16.8743+23.7908+16.8198C23.2536+16.5513+22.6113+16.368+22.036+16.2529C21.5388+16.1535+20.9235+16.3463+20.4431+16.4149C20.2013+16.4494+19.8013+16.7284+19.5523+16.6039C19.3995+16.5275+19.6827+16.3393+19.8309+16.2405Z" opacity="1" fill="#232323"/>
<path d="M13.9907+16.3277C13.7358+16.1684+13.2368+15.9077+12.9979+15.848C12.1047+15.6247+11.1848+15.8183+10.3252+16.0639C10.0827+16.1332+9.29515+16.6225+9.46131+16.9548C9.54964+17.1315+9.91935+16.9553+10.0282+16.9008C10.5654+16.6323+11.2077+16.449+11.783+16.3339C12.2802+16.2345+12.8955+16.4273+13.3758+16.4959C13.6177+16.5304+14.0177+16.8094+14.2667+16.6849C14.4195+16.6085+14.1668+16.4378+13.9907+16.3277Z" opacity="1" fill="#232323"/>
</g>
</svg>
